<!-- 192x192 PWA Icon -->
<svg width="192" height="192" xmlns="http://www.w3.org/2000/svg" viewBox="0 0 192 192">
  <defs>
    <linearGradient id="grad1" x1="0%" y1="0%" x2="100%" y2="100%">
      <stop offset="0%" style="stop-color:#4f46e5;stop-opacity:1" />
      <stop offset="100%" style="stop-color:#7c3aed;stop-opacity:1" />
    </linearGradient>
  </defs>
  
  <!-- Background -->
  <rect width="192" height="192" rx="40" fill="url(#grad1)"/>
  
  <!-- Phone icon -->
  <g transform="translate(48, 48)">
    <path d="M96 0C75.6 0 59.2 16.4 59.2 36.8c0 8.4 2.8 16 7.6 22.4L48 78 70 96l18.8-18.8c6.4 4.8 14 7.6 22.4 7.6 20.4 0 36.8-16.4 36.8-36.8S116.4 0 96 0zm0 62.4c-14 0-25.6-11.6-25.6-25.6S82 11.2 96 11.2s25.6 11.6 25.6 25.6-11.6 25.6-25.6 25.6z" 
          fill="white" 
          transform="scale(0.8) translate(12, 12)"/>
    
    <!-- Chat bubble -->
    <circle cx="70" cy="26" r="20" fill="white" opacity="0.9"/>
    <text x="70" y="32" font-size="20" font-weight="bold" fill="#4f46e5" text-anchor="middle">💬</text>
  </g>
</svg>
